<svg xmlns="http://www.w3.org/2000/svg" xmlns:xlink="http://www.w3.org/1999/xlink" width="868.19" height="240" viewBox="0 0 868.19 240">
  <defs>
    <linearGradient id="linear-gradient" x1="0.075" y1="0.201" x2="0.594" y2="0.411" gradientUnits="objectBoundingBox">
      <stop offset="0" stop-color="#0b7aee"/>
      <stop offset="1" stop-color="#3eb8ff"/>
    </linearGradient>
    <linearGradient id="linear-gradient-2" x1="0.376" y1="0.619" x2="0.488" y2="0.055" gradientUnits="objectBoundingBox">
      <stop offset="0" stop-color="#58e2d4"/>
      <stop offset="1" stop-color="#7cffde"/>
    </linearGradient>
    <linearGradient id="linear-gradient-3" x1="0.955" y1="0.992" x2="0.052" y2="0.087" gradientUnits="objectBoundingBox">
      <stop offset="0" stop-color="#75f0d7"/>
      <stop offset="1" stop-color="#bffff1"/>
    </linearGradient>
    <linearGradient id="linear-gradient-4" x1="0.126" y1="0.978" x2="0.759" y2="-0.089" gradientUnits="objectBoundingBox">
      <stop offset="0" stop-color="#5ef1d3"/>
      <stop offset="1" stop-color="#b3ffed"/>
    </linearGradient>
    <linearGradient id="linear-gradient-5" x1="0.467" y1="1.395" x2="0.659" y2="-0.027" gradientUnits="objectBoundingBox">
      <stop offset="0" stop-color="#c4fdfb"/>
      <stop offset="1" stop-color="#fff"/>
    </linearGradient>
    <linearGradient id="linear-gradient-6" x1="0.526" y1="-0.121" x2="0.457" y2="0.926" gradientUnits="objectBoundingBox">
      <stop offset="0" stop-color="#218df7"/>
      <stop offset="1" stop-color="#47b9ff"/>
    </linearGradient>
    <linearGradient id="linear-gradient-7" x1="0.381" y1="0.906" x2="0.632" y2="-0.303" gradientUnits="objectBoundingBox">
      <stop offset="0" stop-color="#116bdd"/>
      <stop offset="1" stop-color="#27a1ff"/>
    </linearGradient>
    <linearGradient id="linear-gradient-8" x1="0.482" y1="0.064" x2="0.542" y2="0.941" gradientUnits="objectBoundingBox">
      <stop offset="0" stop-color="#2070aa"/>
      <stop offset="1" stop-color="#40bfbe"/>
    </linearGradient>
    <linearGradient id="linear-gradient-9" x1="0.592" y1="0.949" x2="0.389" y2="-0.136" gradientUnits="objectBoundingBox">
      <stop offset="0" stop-color="#35a1fa"/>
      <stop offset="1" stop-color="#50cdff"/>
    </linearGradient>
    <linearGradient id="linear-gradient-10" x1="0.083" y1="-0.042" x2="0.913" y2="0.556" gradientUnits="objectBoundingBox">
      <stop offset="0" stop-color="#dafef6"/>
      <stop offset="1" stop-color="#fff"/>
    </linearGradient>
  </defs>
  <g id="Group_5" data-name="Group 5" transform="translate(-1062 -578)">
    <g id="Group_4" data-name="Group 4" transform="translate(90 36.941)">
      <circle id="Ellipse_1" data-name="Ellipse 1" cx="120" cy="120" r="120" transform="translate(972 541.059)" fill="#0f1e39"/>
      <g id="Group_1" data-name="Group 1" transform="translate(987.185 556.185)">
        <path id="Path_12" data-name="Path 12" d="M390.672,335.017a5.075,5.075,0,0,1,2.173.177,4.326,4.326,0,0,1,2.611,2.4,4.433,4.433,0,0,1-.06,3.582,4.613,4.613,0,0,1-3.17,2.458,4.954,4.954,0,0,1-2.245-.239,4.065,4.065,0,0,1-2.441-2.182,4.27,4.27,0,0,1-.02-3.389A5.122,5.122,0,0,1,390.672,335.017Z" transform="translate(-335.573 -299.967)" fill="#8bf9df"/>
        <path id="Path_13" data-name="Path 13" d="M729.113,566.5a6.028,6.028,0,0,1,2.441.185,4.594,4.594,0,0,1,2.677,2.463,4.334,4.334,0,0,1,.019,3.477A4.459,4.459,0,0,1,731.465,575c-.823.033-1.651.008-2.474,0a5.625,5.625,0,0,1-2.764-2.774,4.141,4.141,0,0,1,.016-3.26A4.778,4.778,0,0,1,729.113,566.5Z" transform="translate(-548.842 -445.718)" fill="#8bf9df"/>
        <path id="Path_14" data-name="Path 14" d="M683.512,549.066a6.165,6.165,0,0,1,2.157.642,4.8,4.8,0,0,1,2.381,2.926,4.182,4.182,0,0,1-.394,3.171,4.814,4.814,0,0,1-3.108,2.19,6.33,6.33,0,0,1-2.008-.252,4.6,4.6,0,0,1-2.731-2.49,4.292,4.292,0,0,1,.084-3.5C680.648,550.17,681.94,549.571,683.512,549.066Z" transform="translate(-519.612 -434.763)" fill="#8bf9df"/>
        <path id="Path_18" data-name="Path 18" d="M670.291,695.153a6.07,6.07,0,0,1,2.11.572,4.641,4.641,0,0,1,2.447,2.8,4.288,4.288,0,0,1-.352,3.268,5.263,5.263,0,0,1-3.349,2.469,5.337,5.337,0,0,1-2.573-.609,4.728,4.728,0,0,1-2.217-2.913,4.556,4.556,0,0,1,.532-3.586A4.665,4.665,0,0,1,670.291,695.153Z" transform="translate(-511.256 -526.744)" fill="#59e1d0"/>
        <path id="Path_19" data-name="Path 19" d="M440.529,338.59a5.3,5.3,0,0,1,2.459.522,4.639,4.639,0,0,1,2.37,2.806,4.552,4.552,0,0,1-.4,3.585,4.877,4.877,0,0,1-3.457,2.288,5.306,5.306,0,0,1-2.635-.579,4.4,4.4,0,0,1-2.181-2.652,4.651,4.651,0,0,1,.416-3.637A4.954,4.954,0,0,1,440.529,338.59Z" transform="translate(-366.62 -302.24)" fill="#8bf9df"/>
        <path id="Path_20" data-name="Path 20" d="M720.552,475.6a5.73,5.73,0,0,1,2.315.35,4.625,4.625,0,0,1,2.606,2.651,4.577,4.577,0,0,1-.183,3.656A4.932,4.932,0,0,1,722,484.716a5.428,5.428,0,0,1-3.021-.447,4.376,4.376,0,0,1-2.149-2.6,4.767,4.767,0,0,1,.436-3.741A5.05,5.05,0,0,1,720.552,475.6Z" transform="translate(-543.004 -388.503)" fill="#8bf9df"/>
        <path id="Path_21" data-name="Path 21" d="M319.345,482.625a5.711,5.711,0,0,1,2.093.5,4.3,4.3,0,0,1,2.351,2.714,4.822,4.822,0,0,1-.454,3.733,5.019,5.019,0,0,1-3.444,2.357,5.085,5.085,0,0,1-2.827-.733,4.605,4.605,0,0,1-2.091-3.065,4.659,4.659,0,0,1,.756-3.567A4.8,4.8,0,0,1,319.345,482.625Z" transform="translate(-290.056 -392.929)" fill="#8bf9df"/>
        <path id="Path_22" data-name="Path 22" d="M375.058,561.563a5.614,5.614,0,0,1,2.734.48,4.545,4.545,0,0,1,2.329,2.831,4.848,4.848,0,0,1-.463,3.75,5.049,5.049,0,0,1-3.294,2.347,5.564,5.564,0,0,1-2.688-.46,4.516,4.516,0,0,1-2.38-2.777,4.915,4.915,0,0,1,.417-3.757A5.1,5.1,0,0,1,375.058,561.563Z" transform="translate(-325.447 -442.628)" fill="#8bf9df"/>
        <path id="Path_25" data-name="Path 25" d="M601,311.236a36.2,36.2,0,0,1,4.565-2.5c5.464-2.74,10.244-4.2,16.408-3.092,5.048.9,10.61,4.206,14.6,7.4-5.154.3-17.173-.779-21.381.334-2.687.711-5.1,2.231-7.677,3.237a2.106,2.106,0,0,1,.259-.388,9.663,9.663,0,0,1,2.738-1.437c5.994-2.667,7.177-2.06,13.261-2.112-.008-.182.01-.074-.124-.332a1.133,1.133,0,0,1-.1-.754l.346-.278.014-.266c-.738-.847-1.262-2.07-2.144-2.743-1.182-.9-2.818-1.029-4.213-1.417-.775-.216-1.643-.956-2.374-1.067-3.942-.6-11.467,5.227-13.9,5.407C601.183,311.23,601.092,311.231,601,311.236Z" transform="translate(-470.202 -281.263)" fill="#175080"/>
        <path id="Path_26" data-name="Path 26" d="M730.923,444.262a8.039,8.039,0,0,1-3.042.186,5.013,5.013,0,0,1-3.394-2.151,5.147,5.147,0,0,1-.794-4.018,5,5,0,0,1,2.193-3.181,6.54,6.54,0,0,1,5.123-.518c1.465,1.316,2.764,2.684,2.884,4.773a4.937,4.937,0,0,1-1.332,3.536,10.069,10.069,0,0,1-1.2,1.025Z" transform="translate(-547.378 -362.503)" fill="#fefefe"/>
        <path id="Path_29" data-name="Path 29" d="M422.348,559a5.728,5.728,0,0,1,3.1.505,5.583,5.583,0,0,1,2.8,3.273,5.434,5.434,0,0,1-.349,4.237,5.541,5.541,0,0,1-3.628,2.711,6.2,6.2,0,0,1-3.427-.515,5.157,5.157,0,0,1-2.674-3.08,5.58,5.58,0,0,1,.367-4.248A5.878,5.878,0,0,1,422.348,559Z" transform="translate(-354.923 -441.007)" fill="#8bf9df"/>
        <path id="Path_30" data-name="Path 30" d="M583.976,405.539a7.075,7.075,0,0,1,3.33.367,6.259,6.259,0,0,1,3.529,3.556,5.547,5.547,0,0,1-.15,4.194,5.95,5.95,0,0,1-3.805,3.095,5.877,5.877,0,0,1-3.484-.157,5.539,5.539,0,0,1-3.089-2.947,5.966,5.966,0,0,1,3.67-8.108Z" transform="translate(-456.852 -344.367)" fill="#8bf9df"/>
        <path id="Path_31" data-name="Path 31" d="M385.879,296.716c2.6-2.063,14.207-8.152,17.416-9.079,6.724.133,10.641,1.421,16.122,5.427-.084,0-.169,0-.253-.008-.723-.061-4.891-2.871-6.25-3.447a36.135,36.135,0,0,0-6.494-1.674c-.531.641-.2,2.081-.217,2.9-.028,1.733-.892,3.88-.643,5.558.057.381.005.317.231.453,2.078,1.246,8.769,3.8,9.616,5.667-2.941-1.61-5.65-3.6-8.783-4.859-4.848-1.948-14.825-.3-20.56-.921Z" transform="translate(-334.754 -270.159)" fill="url(#linear-gradient)"/>
        <path id="Path_32" data-name="Path 32" d="M482.941,662.4c3.128.906,8.525.341,11.618-.635a52.8,52.8,0,0,0,8.257-3.927c4.342-2.26,8.661-4.547,12.946-6.912,2.3-1.268,4.832-2.973,7.336-3.725-1.68,1.556-24.348,13.529-27.812,14.765a21.216,21.216,0,0,1-7.554,1.19,22.352,22.352,0,0,0-4.01-.142c.117,1.722,1.153,3.265,1.528,4.94a24.08,24.08,0,0,0,.556,3.547c8.349.357,11.056-.913,18.246-4.776a31.214,31.214,0,0,0,4.9-2.657c1.008-.8,2.323-1,3.359-1.793l.163.1-.118.137c-.245-.154-.247-.22-.546-.18l.057.349c-.351.616-11.194,6.23-12.495,6.824a26.1,26.1,0,0,1-3.985,1.443,23.532,23.532,0,0,1-18.315-2.2,18.117,18.117,0,0,1-8.542-11.31,17.653,17.653,0,0,1-.4-2.325C472.489,657.851,477.678,661.941,482.941,662.4Z" transform="translate(-386.537 -496.551)" fill="#175080"/>
        <path id="Path_33" data-name="Path 33" d="M403.609,454.716a7.893,7.893,0,0,1-5.214-.089,7.011,7.011,0,0,1-3.971-3.913,7.876,7.876,0,0,1,.219-6.18,6.685,6.685,0,0,1,3.883-3.5,7.171,7.171,0,0,1,5.7.3,7.322,7.322,0,0,1,3.7,4.306,8.218,8.218,0,0,1-.895,6.533A10.1,10.1,0,0,1,403.609,454.716Z" transform="translate(-339.8 -366.461)" fill="#8bf9df"/>
        <path id="Path_34" data-name="Path 34" d="M399.406,685.98a10.645,10.645,0,0,1-6.1.1,6.962,6.962,0,0,1-4.117-3.875,7.64,7.64,0,0,1,4.061-10.223,7.433,7.433,0,0,1,5.708.08,8.674,8.674,0,0,1,4.334,5.24c.135,2.637.061,4.938-1.828,7.008A11.079,11.079,0,0,1,399.406,685.98Z" transform="translate(-336.406 -511.821)" fill="#8bf9df"/>
        <path id="Path_35" data-name="Path 35" d="M743.5,432.525l9.02-.018a48.352,48.352,0,0,0,4.871,0c1.6-.16,2.717-1.523,4.556-1.466a3.945,3.945,0,0,1,2.726,1.214c1.555,1.555,2.006,3.721,2.348,5.8-2.74,2.3-4.225,3.918-7.909,4.546l-.234.227-.051-.338c-.886-.483-13.426-.221-15.414-.285l.438-.349a10.069,10.069,0,0,0,1.2-1.025,4.936,4.936,0,0,0,1.332-3.536C746.265,435.209,744.966,433.841,743.5,432.525Z" transform="translate(-559.87 -360.449)" fill="#8bf9df"/>
        <path id="Path_36" data-name="Path 36" d="M344.437,621.091l-.114.175a8.449,8.449,0,0,1-5.541,3.748,8.13,8.13,0,0,1-6.093-1.468,8.662,8.662,0,0,1-1.223-12.273,7.693,7.693,0,0,1,5.469-2.731c2.887-.106,5.1,1.334,7.133,3.2.154.3.306.6.467.9a8.027,8.027,0,0,1,.7,6.235C345,619.62,344.714,620.357,344.437,621.091Z" transform="translate(-299.231 -472.207)" fill="#8bf9df"/>
        <path id="Path_37" data-name="Path 37" d="M740.246,359.268c-1.327-1.594-3.3-3.507-3.077-5.747a6.386,6.386,0,0,1,2.5-4.036,3.953,3.953,0,0,1,3.136-.66c3.267.7,6.864,7.1,8.541,9.86,1.135,1.868,4.564,7.191,4.138,9.305-.266,1.32-2.88,2.36-4.005,2.865l-3.384,1.5a31.244,31.244,0,0,0-2.42-4.75A70.783,70.783,0,0,0,740.246,359.268Z" transform="translate(-555.926 -308.629)" fill="#fefefe"/>
        <path id="Path_38" data-name="Path 38" d="M268.727,592.8c1.7,8.8,6.4,18.869,11.235,26.417,1.516,2.367,3.371,4.543,4.851,6.906a1.406,1.406,0,0,1-.2-.05c-1.831-.753-6.484-10.1-7.465-10.7-.593.727-1.579,2.176-2.479,2.493-1.878.66-2.435-.532-3.586,1.637l-.4.222-.637-.319A54.237,54.237,0,0,0,274.3,626.3c1.883,2.385,3.5,4.94,5.407,7.32l-.127.3c-8.1-9.229-16.326-24.865-19.212-36.8A39.3,39.3,0,0,1,268.727,592.8Z" transform="translate(-255.726 -462.301)" fill="#8bf9df"/>
        <path id="Path_39" data-name="Path 39" d="M371.09,504.743c-.374.213-.75.424-1.131.623a8.85,8.85,0,0,1-12.208-3.992,9.2,9.2,0,0,1-.3-6.981,8.921,8.921,0,0,1,4.82-5.021,7.447,7.447,0,0,1,6.372,0,9.235,9.235,0,0,1,5.271,5.362,9.621,9.621,0,0,1-1.059,7.86A12.663,12.663,0,0,1,371.09,504.743Z" transform="translate(-316.51 -396.725)" fill="#8bf9df"/>
        <path id="Path_40" data-name="Path 40" d="M652.189,428.775a10.212,10.212,0,0,1,6.783-4.453,9.673,9.673,0,0,1,7.186,1.96,8.551,8.551,0,0,1,3.26,5.944,9.885,9.885,0,0,1-2.39,7.443,8.629,8.629,0,0,1-6.214,3.038,8.886,8.886,0,0,1-8.981-5.4C650.553,434.346,651.022,431.652,652.189,428.775Z" transform="translate(-501.726 -356.158)" fill="#fefefe"/>
        <path id="Path_41" data-name="Path 41" d="M257.161,573.664c-.676-2.307-2.214-6.65-1.823-9.011a3.75,3.75,0,0,1,1.958-2.258c2.7-1.746,11.948-5.943,14.952-6.577a71.236,71.236,0,0,1,13.248.07,5.736,5.736,0,0,1,3.762,2.54,5.061,5.061,0,0,1,.117,4.018c-1.47,4.4-5.81,3.1-9.25,2.871a24.168,24.168,0,0,0-5.5.215c-3.2.548-6.249,2.351-9.106,3.811A39.3,39.3,0,0,0,257.161,573.664Z" transform="translate(-252.521 -438.841)" fill="#fefefe"/>
        <path id="Path_42" data-name="Path 42" d="M448.787,303.024c-.847-1.864-7.537-4.421-9.616-5.667-.226-.135-.174-.071-.231-.453-.249-1.678.616-3.825.643-5.559.013-.823-.314-2.264.217-2.9a36.133,36.133,0,0,1,6.494,1.674c1.358.576,5.527,3.386,6.25,3.447.084.007.169.005.253.008l.147.082c8.2,4.672,8.648,7.941,19.269,8.025a1.2,1.2,0,0,1-.146.1,5.891,5.891,0,0,1-2.059.089l.013.139c1.249.027,3.005-.351,4.146.011.219.319.3.395.234.8a13.46,13.46,0,0,1-.985,2.479,8.059,8.059,0,0,0,.166,5.8.779.779,0,0,1,.115.624c-.678.257-1.335-.044-2.029-.027a32.681,32.681,0,0,1-5.92-.161,22.021,22.021,0,0,0-2.727-.513c-.077.027-.125.1-.188.155C459.539,310.293,451.689,305.177,448.787,303.024Z" transform="translate(-368.135 -270.665)" fill="#78e2fc"/>
        <path id="Path_43" data-name="Path 43" d="M676.275,654.862a32.57,32.57,0,0,1-14.278.081,23.7,23.7,0,0,1-4.931-1.835c-3.4-1.7-6.64-3.886-9.9-5.844-1.91-1.146-4-2.158-5.846-3.371a2.855,2.855,0,0,1-1.057-1.1,1.939,1.939,0,0,1,.025-1.615,8.914,8.914,0,0,1,4.481-3.853,7.742,7.742,0,0,1,4.564-.255c2.075.531,4.023,1.934,5.853,3.011a77.923,77.923,0,0,0,8.219,4.474,19.814,19.814,0,0,0,15.153.017c1.664-.679,3.2-1.637,4.863-2.288C681.609,646.324,676.781,651.128,676.275,654.862Z" transform="translate(-494.817 -490.029)" fill="#228ef5"/>
        <path id="Path_44" data-name="Path 44" d="M656.525,712.448a5.61,5.61,0,0,1,2.884.3,4.383,4.383,0,0,1,2.308,2.277,3.616,3.616,0,0,1-.324,2.8c-2.49,4.9-19.538,14.931-24.9,18.1-2.66,1.574-5.416,3.575-8.371,4.488a7.726,7.726,0,0,1-2.41-.19,5.185,5.185,0,0,1-3.114-2.575,3.807,3.807,0,0,1-.053-3.155A6.8,6.8,0,0,1,625,731.712c1.461-1.031,3.1-1.888,4.647-2.791,4.133-2.415,8.388-4.655,12.469-7.152,2.458-1.5,4.874-3.1,7.24-4.747A44.156,44.156,0,0,1,656.525,712.448Z" transform="translate(-483.566 -537.596)" fill="#37a8d6"/>
        <path id="Path_45" data-name="Path 45" d="M368.9,617c4.405-.077,8.812-.065,13.218-.066a65.636,65.636,0,0,1,8.375.19,17.75,17.75,0,0,1,4.568,1.26c4.235,1.773,8.233,4.792,12.1,7.275,3.834,2.462,7.69,5.427,11.933,7.1l.164.063c-.536.216-.836.033-1.369-.192-.913-.383-2.388-1.479-3.325-1.447-1.161,1.352-1.167,3.443-2.206,4.861-.668.912-2.035,1.051-2.718,1.933.07.4.191.426.52.646a33.2,33.2,0,0,0,2.973,1.549c.518.273.883.7,1.405.962a26.214,26.214,0,0,0,6.29,2.045l-.36.137c-5.263-.457-10.452-4.548-14.818-7.279-3.492-2.57-11.488-8.213-15.432-9.249-2.76-.726-5.924-.384-8.762-.377-4.06.01-8.128.062-12.186-.059.277-.733.564-1.47.795-2.22a8.026,8.026,0,0,0-.7-6.235C369.2,617.6,369.051,617.3,368.9,617Z" transform="translate(-324.061 -477.472)" fill="url(#linear-gradient-2)"/>
        <path id="Path_46" data-name="Path 46" d="M677.69,383c-6.418,3.517-13.018,6.583-20.477,4.236a29.711,29.711,0,0,1-3.745-1.653c-2.871-1.364-5.348-2.385-8.581-2.345a13.5,13.5,0,0,0-4.063.52c-2.584.887-4.958,3.183-7.777,3.2a3.38,3.38,0,0,1-2.56-1.048,5.148,5.148,0,0,1-1.3-3.58,5.913,5.913,0,0,1,2.179-4c4.946-4.472,13.647-6.468,19.962-4.194,3.9,1.4,6.836,3.651,11.162,3.848a12.863,12.863,0,0,0,9.775-3.32A70.8,70.8,0,0,1,677.69,383Z" transform="translate(-487.945 -324.026)" fill="url(#linear-gradient-3)"/>
        <path id="Path_47" data-name="Path 47" d="M520.485,574c-5.373,2.185-12.007,6.13-17.188,9a52.569,52.569,0,0,1-7.7,3.912,21.6,21.6,0,0,1-5.808,1.133,26.984,26.984,0,0,1-20.291-7.091,6.355,6.355,0,0,1-2.525-4.364,4.176,4.176,0,0,1,1.383-3.05c3.646-3.691,9.151,2.238,12.794,3.67a18.838,18.838,0,0,0,10.039.843c3.51-.644,6.8-2.681,9.847-4.448,3.122-1.81,6.288-3.544,9.447-5.288a55.358,55.358,0,0,1,8.938-4.407,18.086,18.086,0,0,1,5.81-.953c-3.872.871-6.09,1.254-9.777,3.076-1.006,4.152.191,6.262-.056,9.941,1.442-.74,3.327-1.969,4.941-2.087Z" transform="translate(-385.811 -443.509)" fill="url(#linear-gradient-4)"/>
        <path id="Path_48" data-name="Path 48" d="M488.512,633.229c2.762.494,5.063,1.115,7.92.781,5.18-.605,9.62-3.628,14.1-6.05,5.432-2.934,10.86-6.138,16.433-8.785,2.636-1.252,5.585-2.276,8.474-1.157a5.679,5.679,0,0,1,3.2,2.93,4.008,4.008,0,0,1-.006,3.249c-1.87,4.26-5.3,2.876-8.584,4.253l-.169.074c-2.5.751-5.039,2.457-7.336,3.725-4.285,2.366-8.6,4.652-12.946,6.913a52.8,52.8,0,0,1-8.257,3.927c-3.094.976-8.49,1.541-11.618.635l.36-.137a26.214,26.214,0,0,1-6.29-2.045c-.523-.263-.887-.689-1.405-.962a33.2,33.2,0,0,1-2.973-1.549c-.33-.22-.451-.242-.52-.646.683-.882,2.05-1.021,2.718-1.933,1.039-1.418,1.046-3.508,2.206-4.861.937-.032,2.412,1.063,3.325,1.447C487.676,633.261,487.976,633.445,488.512,633.229Z" transform="translate(-393.319 -477.875)" fill="#37a8d6"/>
        <path id="Path_49" data-name="Path 49" d="M512.91,294.865c4.9-.291,8.589-2.537,12.833-4.753,4.934-2.577,9.749-5.368,14.7-7.915a53,53,0,0,1,6.946-3.247c11.05-3.787,21.809,1.1,30.834,7.287a66.576,66.576,0,0,1,6.4,4.75c1.28,1.127,2.585,2.58,2.71,4.364a5.2,5.2,0,0,1-1.44,3.763,6.953,6.953,0,0,1-2.956,1.069c-3.279.287-5.488-2.643-7.737-4.553-3.986-3.192-9.548-6.493-14.6-7.4-6.164-1.1-10.944.353-16.408,3.092a36.216,36.216,0,0,0-4.565,2.5c-1.821.475-3.761,1.8-5.434,2.665l-8.208,4.256c-6.145,3.236-9.482,4.919-16.628,4.556-1.848-.094-4.149-.1-5.83-.936.063-.052.111-.128.188-.155a22,22,0,0,1,2.727.513,32.682,32.682,0,0,0,5.92.161c.694-.017,1.351.284,2.029.027a.779.779,0,0,0-.115-.624,8.06,8.06,0,0,1-.166-5.8,13.461,13.461,0,0,0,.985-2.479c.063-.408-.015-.484-.234-.8-1.141-.361-2.9.017-4.146-.011l-.013-.139a5.891,5.891,0,0,0,2.059-.089A1.191,1.191,0,0,0,512.91,294.865Z" transform="translate(-408.83 -263.852)" fill="url(#linear-gradient-5)"/>
        <path id="Path_50" data-name="Path 50" d="M398.029,504.835c5.171-.009,11.091-.629,16.059.9,12.338,3.787,19.978,18.052,34.526,14.2,4.747-1.256,11.155-5.32,15.625-7.781a32.074,32.074,0,0,1,4.211-2.268,26.069,26.069,0,0,1,5.558-2.636c-1.154,1.579-2.057,3.112-1.792,5.164a4.486,4.486,0,0,0,1.927,3.171,8.118,8.118,0,0,0,2.343,1c-2.816.965-5.163,2.741-7.877,3.908a24.581,24.581,0,0,1-3.21,1.771l-7.2,3.915c-5.267,2.866-8.924,4.535-15.059,4.586-9.207.076-14.945-4.894-22.154-9.9-2.794-1.941-5.947-4.353-9.207-5.387-3.655-1.16-12.424-.679-16.572-.626a12.663,12.663,0,0,0,1.764-2.153A9.621,9.621,0,0,0,398.029,504.835Z" transform="translate(-340.626 -406.831)" fill="url(#linear-gradient-6)"/>
        <path id="Path_51" data-name="Path 51" d="M592.966,514.214a26.07,26.07,0,0,1,5.558-2.636c-1.154,1.579-2.057,3.112-1.792,5.164a4.486,4.486,0,0,0,1.927,3.171,8.117,8.117,0,0,0,2.343,1c-2.816.965-5.163,2.741-7.877,3.908.734-1.731,4.814-1.849,5.413-3.814.227-.744-1.4-2.056-1.774-2.752a4.176,4.176,0,0,1-.188-3.684,2.008,2.008,0,0,0,.1-1.563c-1.179-.108-2.185,1.108-3.384,1.2C593.181,514.211,593.073,514.21,592.966,514.214Z" transform="translate(-465.142 -411.159)" fill="#228ef5"/>
        <path id="Path_52" data-name="Path 52" d="M421.82,686.843c2.966-.728,5.563.311,8.084,1.82,4.709,2.819,9.231,6.373,13.71,9.555,7.3,5.19,14.526,9.579,23.843,7.343,5.491-1.318,11.717-5.357,16.664-8.179a37.329,37.329,0,0,1,8.453-3.976c2.274-.631,5.192-.781,7.249.519a5.634,5.634,0,0,1,2.609,3.727,4.369,4.369,0,0,1-.858,3.449,5.432,5.432,0,0,1-3.8,2.009c-1.364.139-2.767.045-4.12.29-3.243.588-7.256,3.483-10.166,5.125-3.832,2.162-7.718,4.618-11.82,6.225a25.953,25.953,0,0,1-9.057,1.66c-9.276.183-15.207-3.632-22.436-8.809-3.631-2.6-7.312-5.114-10.97-7.675-1.74-1.218-3.394-2.8-5.4-3.558-1.981-.742-3.828-.568-5.861-.847a11.08,11.08,0,0,0,2.053-1.67C421.882,691.78,421.956,689.479,421.82,686.843Z" transform="translate(-354.94 -521.362)" fill="url(#linear-gradient-7)"/>
        <path id="Path_53" data-name="Path 53" d="M360.365,388.913a2.973,2.973,0,0,1-.5.4,9.682,9.682,0,0,1-7.391,1.494,7.659,7.659,0,0,1-4.957-3.63,8.791,8.791,0,0,1-.929-6.786,8.4,8.4,0,0,1,4.086-5.256,8.256,8.256,0,0,1,6.251-.663,8.877,8.877,0,0,1,5.31,4.549c4.594-.117,9.58-.305,14.094.631,6.679,1.384,16.156,8.734,22.105,12.594,2.893,1.877,5.817,3.839,9.237,4.584a19.517,19.517,0,0,0,10.041-.431,15.313,15.313,0,0,1,3.168-1.13,5.338,5.338,0,0,1,4.187,1.283,4.325,4.325,0,0,1,1.159,3.141,5.734,5.734,0,0,1-2.01,4.137c-3.554,3.193-10.738,3.349-15.244,3.022a22.536,22.536,0,0,1-6.995-1.574c-3.621-1.491-6.93-4.024-10.177-6.192-2.978-1.99-5.994-3.92-9-5.861-2.292-1.479-4.576-3.168-7.261-3.856C372.02,388.465,364.15,388.8,360.365,388.913Z" transform="translate(-309.824 -324.62)" fill="#8bf9df"/>
        <path id="Path_54" data-name="Path 54" d="M423.538,449.583c1.247-.425,2.745-2.55,3.744-3.488a5.272,5.272,0,0,1,4.858-1.536c3.864.783,13.729,9.5,19.051,11.67a18.96,18.96,0,0,0,8.6,1.215c5.333-.36,9.835-3.3,14.4-5.817l15.515-8.505c3.791-2.1,7.786-4.746,11.91-6.081a14.764,14.764,0,0,1,5.162-.553c-1.167,2.877-1.636,5.571-.355,8.537a10.521,10.521,0,0,0,1.764,2.686c-2.094.183-4.318-.141-6.368.3-3.843.836-17.849,9.017-22.051,11.292-4.4,2.38-9.029,5.4-13.757,7.012a25.726,25.726,0,0,1-8.074,1.269c-6.928.087-10.779-1.854-16.511-5.425l-8.251-5.194c-2.337-1.5-4.742-3.31-7.386-4.2-1.84-.621-3.779-.376-5.666-.64A10.1,10.1,0,0,0,423.538,449.583Z" transform="translate(-356.315 -363.87)" fill="url(#linear-gradient-8)"/>
        <path id="Path_55" data-name="Path 55" d="M670.475,454.764l.234-.227c3.684-.628,5.169-2.248,7.909-4.546a96.09,96.09,0,0,1,3.087,21.422,4.9,4.9,0,0,1-1.293,1.451c-2.688,1.744-6.191,2.887-9.121,4.222-5.171,2.356-11.8,6.267-17.271,7.317a25.253,25.253,0,0,1-6.18.321,20.732,20.732,0,0,1-6.372-1.242c-5.265-2.018-9.763-6.8-15.6-7.062-6.006-.269-8.736,1.041-13.908,3.916a12.112,12.112,0,0,1-4.631,1.8,8.117,8.117,0,0,1-2.343-1,4.486,4.486,0,0,1-1.927-3.171c-.265-2.051.638-3.584,1.792-5.164,2.181-.967,4.309-2.321,6.426-3.449a23.589,23.589,0,0,1,5.45-2.4c2.381-.57,11.294-.434,13.776-.016a14.769,14.769,0,0,1,4.022,1.381c3.666,1.8,6.965,4.631,10.917,5.8,6.49,1.922,11.872-1.54,17.527-4.214,2.992-1.414,6.086-2.712,8.992-4.293A72.525,72.525,0,0,0,670.475,454.764Z" transform="translate(-471.466 -372.382)" fill="#fefefe"/>
        <path id="Path_56" data-name="Path 56" d="M556.208,325.937c2.249,1.91,4.458,4.84,7.737,4.553a6.953,6.953,0,0,0,2.956-1.068,9.664,9.664,0,0,1-3.36,4.753c-3.949,2.892-8.977,2.314-13.58,2.271l-9.039-.06a28.5,28.5,0,0,0-5.018.161c-3.337.586-6.537,2.7-9.487,4.277-4.341,2.318-8.739,4.534-13.061,6.886C506.21,351.6,501.2,355.3,492.746,355.6a29.729,29.729,0,0,1-6.173-.324c-3.93-.687-9.872-3.2-12.15-6.628a5.68,5.68,0,0,1-.91-4.494,4.2,4.2,0,0,1,1.943-2.651c3.767-2.22,7.542,2.271,11.635,3.326a20.092,20.092,0,0,0,9.26.087c5.325-1.359,10.893-5.18,15.815-7.707,4.964-2.548,10.185-4.872,14.985-7.705,2.574-1.006,4.99-2.526,7.677-3.237C539.034,325.158,551.054,326.235,556.208,325.937Z" transform="translate(-389.839 -294.158)" fill="url(#linear-gradient-9)"/>
        <path id="Path_57" data-name="Path 57" d="M296.033,672.3l.127-.3c-1.912-2.379-3.524-4.934-5.407-7.32a54.237,54.237,0,0,1-4.253-6.889l.637.318.4-.222c1.151-2.168,1.708-.977,3.586-1.637.9-.316,1.886-1.765,2.479-2.493.981.6,5.634,9.945,7.465,10.7a1.405,1.405,0,0,0,.2.05c1.539,1.536,2.837,3.394,4.255,5.048a87.533,87.533,0,0,0,8,8.186c16.2,14.438,40.56,24.489,62.367,24.459,2.1,0,4.211-.057,6.31-.22,1.974-.154,4.194-.653,6.152-.4a5.652,5.652,0,0,1,3.393,1.632,4.26,4.26,0,0,1,1.224,3.135,4.021,4.021,0,0,1-1.491,2.836,6.678,6.678,0,0,1-2.761,1.337c-4.929,1.193-19.2.672-24.507.087-25.239-2.787-51.792-17.687-67.613-37.47A5.057,5.057,0,0,1,296.033,672.3Z" transform="translate(-272.181 -500.68)" fill="#59e1d0"/>
        <path id="Path_58" data-name="Path 58" d="M668.7,546.827c1.449-1.348,4.138-2.948,6.157-2.9a2.511,2.511,0,0,1,1.876.841c.938,1.076.815,2.828.661,4.15a106.491,106.491,0,0,1-15.73,43.847c-1.506,2.386-3.127,5.378-5.365,7.136a4.309,4.309,0,0,1-3.428,1.01,4.579,4.579,0,0,1-2.97-2.115,6.1,6.1,0,0,1-.908-2.437c.506-3.735,5.334-8.538,7.142-12.577a80.355,80.355,0,0,0,5.061-10.268,38.818,38.818,0,0,1-9.044,3.666,29.346,29.346,0,0,1-6.742.661c-6.806-.048-10.8-2.409-16.426-5.85-3.58-2.189-7.115-4.452-10.673-6.677-5.783-3.617-9.336-4.852-16.1-3.293l-.15-.117c-1.614.118-3.5,1.347-4.941,2.087.247-3.679-.95-5.789.056-9.941,3.687-1.822,5.905-2.2,9.777-3.076l.254-.011c6.751-.256,12.056,3.428,17.526,6.856,2.954,1.851,5.909,3.7,8.908,5.476,7.465,4.423,13.149,6.6,21.448,2.272a27.559,27.559,0,0,0,7.5-5.424C666.74,555.674,666.867,552.164,668.7,546.827Z" transform="translate(-467.535 -431.529)" fill="url(#linear-gradient-10)"/>
        <path id="Path_59" data-name="Path 59" d="M257.677,339.46c.783-.353,1.558-.723,2.349-1.06a5.189,5.189,0,0,1,4.144-.19,6.131,6.131,0,0,1,3.189,3.063,4.051,4.051,0,0,1-.39,3.248,7.024,7.024,0,0,1-2.438,2.556c-1.477.97-12.822,6.493-14.255,6.78a1.355,1.355,0,0,1-1.253-.306c-.828-.648-1.045-2.169-1.1-3.135a98.023,98.023,0,0,1,.263-11.678,104.658,104.658,0,0,1,27.288-63.724c14.855-16.456,35.443-27.712,57.034-32.43a86.227,86.227,0,0,1,14.405-2.088c6.756-.31,30.177.739,34.738,5.071a4.738,4.738,0,0,1,1.566,3.5,4.834,4.834,0,0,1-1.387,3.363c-2.793,2.71-9.285-.659-12.669-1.25a43.9,43.9,0,0,0-7.292-.412,6.971,6.971,0,0,1,1.582,2.94,4.434,4.434,0,0,1-.67,3.668c-1.54,2.183-4.495,3.045-7.005,3.466a35.276,35.276,0,0,1-6.447.367c-8.277-.146-12.647-3.449-19.088-8.079a74.629,74.629,0,0,0-13.861,4.792c-3.21.927-14.817,7.016-17.416,9.079-.056.024-.114.044-.169.071-3.071,1.454-7.1,5.084-9.672,7.441-13.52,12.375-20.6,24.4-27.126,41.383,2.365-1.018,4.5-2.457,7.041-3.057,1.634-.386,20.586-.686,21.839-.336a5.073,5.073,0,0,1,3,2.368,4.96,4.96,0,0,1,.472,3.779,4.9,4.9,0,0,1-3.44,3.341c-1.849.563-3.838.285-5.742.234-3.666-.1-10.135-.486-13.557.351-4.2,1.028-8.978,4.432-12.886,6.467A81.415,81.415,0,0,0,257.677,339.46Z" transform="translate(-247.839 -240.445)" fill="#fefefe"/>
      </g>
    </g>
    <path id="Path_62" data-name="Path 62" d="M9.48-86.187H32.711a47.327,47.327,0,0,1,9.3.9,23.819,23.819,0,0,1,7.98,3.069,16.054,16.054,0,0,1,5.572,5.855,18.854,18.854,0,0,1,2.078,9.349,18.619,18.619,0,0,1-4.014,12.182q-4.014,4.911-11.474,5.949L59.908-19.327H45.554L30.067-47.657H21.379v28.331H9.48ZM30.634-57.857q2.55,0,5.1-.236a15.66,15.66,0,0,0,4.675-1.133,7.978,7.978,0,0,0,3.447-2.739,8.7,8.7,0,0,0,1.322-5.147,8.212,8.212,0,0,0-1.228-4.722,7.63,7.63,0,0,0-3.211-2.691,14.78,14.78,0,0,0-4.391-1.18,40.013,40.013,0,0,0-4.675-.283H21.379v18.132Zm42.59,19.831a11.511,11.511,0,0,0,3.966,7.933,12.412,12.412,0,0,0,8.216,2.833,13.523,13.523,0,0,0,7.13-1.747A19.765,19.765,0,0,0,97.588-33.4l8.121,6.138a23.017,23.017,0,0,1-8.877,6.988,26.152,26.152,0,0,1-10.293,2.078,27.206,27.206,0,0,1-9.632-1.7,23.1,23.1,0,0,1-7.838-4.816,22.854,22.854,0,0,1-5.241-7.508,23.973,23.973,0,0,1-1.936-9.774,23.973,23.973,0,0,1,1.936-9.774,22.854,22.854,0,0,1,5.241-7.508,23.1,23.1,0,0,1,7.838-4.816,27.206,27.206,0,0,1,9.632-1.7,22.02,22.02,0,0,1,8.641,1.653,18.531,18.531,0,0,1,6.7,4.769,22.027,22.027,0,0,1,4.344,7.7,32.651,32.651,0,0,1,1.558,10.53v3.116Zm23.231-8.5a10.671,10.671,0,0,0-3.116-7.885q-3.022-2.88-8.4-2.88a11.01,11.01,0,0,0-8.074,2.927,13.065,13.065,0,0,0-3.636,7.838Zm64.783-18.132v41.268a37.993,37.993,0,0,1-1.511,11.1,21.484,21.484,0,0,1-4.675,8.4,21.073,21.073,0,0,1-7.98,5.336,31.255,31.255,0,0,1-11.427,1.889,43.8,43.8,0,0,1-11.993-1.605A26.8,26.8,0,0,1,113.17-4.123l6.8-9.255a27.7,27.7,0,0,0,7.083,4.816,20.081,20.081,0,0,0,8.5,1.7A18.216,18.216,0,0,0,142.4-7.995a11.07,11.07,0,0,0,4.438-3.116A11.916,11.916,0,0,0,149.2-15.88a25.108,25.108,0,0,0,.708-6.186v-3.305h-.189a14.937,14.937,0,0,1-6.516,4.958,21.86,21.86,0,0,1-8.31,1.653,22.6,22.6,0,0,1-9.255-1.841,22.126,22.126,0,0,1-7.13-4.958,21.575,21.575,0,0,1-4.58-7.366,25.438,25.438,0,0,1-1.605-9.066,28.266,28.266,0,0,1,1.511-9.349,21.6,21.6,0,0,1,4.438-7.555,21.054,21.054,0,0,1,7.035-5.052,22.751,22.751,0,0,1,9.4-1.841,21.423,21.423,0,0,1,8.971,1.889,14.575,14.575,0,0,1,6.61,6.044h.189v-6.8ZM137.062-55.59a14.507,14.507,0,0,0-5.477.992,12.461,12.461,0,0,0-4.2,2.739,12.362,12.362,0,0,0-2.739,4.25,14.872,14.872,0,0,0-.992,5.524,13.034,13.034,0,0,0,.992,5.1,12.862,12.862,0,0,0,2.786,4.155A13.227,13.227,0,0,0,131.679-30a13.431,13.431,0,0,0,5.288,1.039A14.531,14.531,0,0,0,142.587-30a12.945,12.945,0,0,0,4.25-2.786,11.9,11.9,0,0,0,2.691-4.2,14.606,14.606,0,0,0,.944-5.288,13.216,13.216,0,0,0-3.589-9.632Q143.295-55.59,137.062-55.59Zm47.973-19.831H164.543V-86.187h52.884v10.766H196.934v56.095h-11.9Zm34.28,37.4a11.511,11.511,0,0,0,3.966,7.933,12.412,12.412,0,0,0,8.216,2.833,13.523,13.523,0,0,0,7.13-1.747A19.765,19.765,0,0,0,243.68-33.4l8.121,6.138a23.017,23.017,0,0,1-8.877,6.988,26.152,26.152,0,0,1-10.293,2.078,27.206,27.206,0,0,1-9.632-1.7,23.1,23.1,0,0,1-7.838-4.816,22.854,22.854,0,0,1-5.241-7.508,23.973,23.973,0,0,1-1.936-9.774,23.973,23.973,0,0,1,1.936-9.774,22.854,22.854,0,0,1,5.241-7.508A23.1,23.1,0,0,1,223-64.089a27.206,27.206,0,0,1,9.632-1.7,22.02,22.02,0,0,1,8.641,1.653,18.532,18.532,0,0,1,6.7,4.769,22.027,22.027,0,0,1,4.344,7.7,32.651,32.651,0,0,1,1.558,10.53v3.116Zm23.231-8.5a10.671,10.671,0,0,0-3.116-7.885q-3.022-2.88-8.4-2.88a11.01,11.01,0,0,0-8.074,2.927,13.065,13.065,0,0,0-3.636,7.838Zm49.106-4.533a18.083,18.083,0,0,0-4.155-3.305,8.92,8.92,0,0,0-4.438-1.228,13.15,13.15,0,0,0-5.572,1.133,13.172,13.172,0,0,0-4.2,3.022,12.8,12.8,0,0,0-2.644,4.344,14.743,14.743,0,0,0-.9,5.1,14.743,14.743,0,0,0,.9,5.1,12.8,12.8,0,0,0,2.644,4.344,13.172,13.172,0,0,0,4.2,3.022,13.15,13.15,0,0,0,5.572,1.133,11.216,11.216,0,0,0,4.911-1.086,10.685,10.685,0,0,0,3.872-3.164l7.555,8.121a17.445,17.445,0,0,1-3.919,2.927,26.721,26.721,0,0,1-4.486,1.983,27.373,27.373,0,0,1-4.344,1.086,23.3,23.3,0,0,1-3.589.331,27.206,27.206,0,0,1-9.632-1.7,23.1,23.1,0,0,1-7.838-4.816,22.854,22.854,0,0,1-5.241-7.508,23.973,23.973,0,0,1-1.936-9.774,23.973,23.973,0,0,1,1.936-9.774,22.854,22.854,0,0,1,5.241-7.508,23.1,23.1,0,0,1,7.838-4.816,27.206,27.206,0,0,1,9.632-1.7,24.661,24.661,0,0,1,8.735,1.653,19.879,19.879,0,0,1,7.7,5.241Zm22.1-7.272h.189a13.219,13.219,0,0,1,4.675-5.147,14.9,14.9,0,0,1,8.641-2.314,17.753,17.753,0,0,1,7.7,1.511,14.548,14.548,0,0,1,5.147,3.966,15.014,15.014,0,0,1,2.833,5.666,26.094,26.094,0,0,1,.85,6.7v28.614H332.449V-42.275q0-1.889-.189-4.2a15.086,15.086,0,0,0-.992-4.344,8.135,8.135,0,0,0-2.5-3.4,7.172,7.172,0,0,0-4.627-1.369,10.821,10.821,0,0,0-4.769.944,9.165,9.165,0,0,0-3.211,2.55,10.141,10.141,0,0,0-1.841,3.683,16.436,16.436,0,0,0-.567,4.344v24.742H302.418V-90.72h11.332ZM370.6-86.187h13.032l12.56,48.162h.189L411.4-86.187h11.71l14.732,48.162h.189l13.127-48.162h12.088l-19.454,66.86H432.456l-15.487-50.9h-.189l-15.487,50.9H390.338ZM490.722-25.56h-.283a14.592,14.592,0,0,1-6.233,5.619,19.556,19.556,0,0,1-8.31,1.747,22.063,22.063,0,0,1-6.091-.85,16.5,16.5,0,0,1-5.288-2.55,13.1,13.1,0,0,1-3.73-4.25,12.052,12.052,0,0,1-1.417-5.949,13.71,13.71,0,0,1,1.322-6.28,12.9,12.9,0,0,1,3.541-4.344A17.948,17.948,0,0,1,469.38-45.2a35.258,35.258,0,0,1,6.091-1.558,54,54,0,0,1,6.374-.661q3.211-.142,6.044-.142h2.833v-1.228a7.363,7.363,0,0,0-2.927-6.374,12.382,12.382,0,0,0-7.46-2.125,17.536,17.536,0,0,0-6.7,1.275,16.976,16.976,0,0,0-5.383,3.447L462.3-58.518a21.967,21.967,0,0,1,8.83-5.572,32.506,32.506,0,0,1,10.435-1.7,26.276,26.276,0,0,1,8.121,1.086,17.868,17.868,0,0,1,5.477,2.786A12.318,12.318,0,0,1,498.513-58a18.2,18.2,0,0,1,1.7,4.486,24.539,24.539,0,0,1,.614,4.391q.094,2.125.094,3.73v26.064h-10.2Zm-.661-14.071H487.7q-2.361,0-5.288.189a27.746,27.746,0,0,0-5.524.9,12.634,12.634,0,0,0-4.391,2.078,4.537,4.537,0,0,0-1.794,3.825,4.827,4.827,0,0,0,.708,2.691,6.414,6.414,0,0,0,1.842,1.841,7.711,7.711,0,0,0,2.55,1.086,12.431,12.431,0,0,0,2.833.331q5.855,0,8.641-2.786a10.272,10.272,0,0,0,2.786-7.6Zm13.126-25.025h12.371l12.088,31.73h.189l12.182-31.73h11.616L533.785-19.327H521.7Zm60.439,26.631a11.511,11.511,0,0,0,3.966,7.933,12.412,12.412,0,0,0,8.216,2.833,13.523,13.523,0,0,0,7.13-1.747,19.767,19.767,0,0,0,5.052-4.391l8.121,6.138a23.017,23.017,0,0,1-8.877,6.988,26.152,26.152,0,0,1-10.293,2.078,27.206,27.206,0,0,1-9.632-1.7,23.1,23.1,0,0,1-7.838-4.816,22.854,22.854,0,0,1-5.241-7.508,23.973,23.973,0,0,1-1.936-9.774,23.973,23.973,0,0,1,1.936-9.774,22.854,22.854,0,0,1,5.241-7.508,23.1,23.1,0,0,1,7.838-4.816,27.206,27.206,0,0,1,9.632-1.7,22.02,22.02,0,0,1,8.641,1.653,18.531,18.531,0,0,1,6.7,4.769,22.028,22.028,0,0,1,4.344,7.7,32.65,32.65,0,0,1,1.558,10.53v3.116Zm23.231-8.5a10.671,10.671,0,0,0-3.116-7.885q-3.022-2.88-8.4-2.88a11.01,11.01,0,0,0-8.074,2.927,13.064,13.064,0,0,0-3.636,7.838Z" transform="translate(1332 745.884)" fill="#0f1e39"/>
  </g>
</svg>
